<svg width="89" height="66" viewBox="0 0 89 66" fill="none" xmlns="http://www.w3.org/2000/svg">
<path d="M31.5759 53.6344C31.5505 53.5433 31.5252 53.4573 31.4998 53.3662C31.373 52.9107 31.2512 52.445 31.1396 51.9693C31.1294 51.9338 31.1244 51.8984 31.1142 51.863C30.9772 51.2759 30.8555 50.6736 30.7388 50.0561C30.0945 46.5436 29.7901 42.4844 29.6785 37.9191C29.6481 36.7449 29.5872 35.5302 29.5821 34.2902C29.5821 33.8144 29.577 33.3387 29.577 32.8528C29.577 32.5592 29.577 32.2758 29.577 31.9924C29.577 31.8912 29.577 31.7899 29.577 31.6836C29.577 31.5065 29.577 31.3293 29.577 31.1522C29.577 31.0257 29.577 30.8941 29.577 30.7675C29.577 30.6258 29.577 30.4841 29.577 30.3475C29.577 29.983 29.5872 29.6237 29.5922 29.2643C29.5922 29.2542 29.5922 29.2441 29.5922 29.234C29.5922 29.0366 29.5973 28.8443 29.6024 28.6469C29.6024 28.5861 29.6024 28.5305 29.6024 28.4697C29.6024 28.2673 29.6125 28.0699 29.6176 27.8725C29.6176 27.8421 29.6176 27.8118 29.6176 27.7763C29.6227 27.498 29.6328 27.2196 29.643 26.9463C29.643 26.8602 29.6481 26.7691 29.6531 26.678H15.0219C13.784 26.678 12.9824 25.5595 13.1752 24.4814C13.231 24.3802 13.2868 24.279 13.3629 24.1778L16.9091 19.6631C18.4818 17.6639 20.8866 16.4947 23.4384 16.4947H28.3493C28.3493 16.4947 28.3493 16.4947 28.3493 16.4998H30.5562C30.7692 15.2193 31.0229 14.0096 31.3273 12.8708H22.2513C19.8313 12.8708 17.5382 13.9337 15.9655 15.7659L10.8567 21.718C10.3038 22.3709 9.48697 22.7403 8.63467 22.7403H4.01801C2.50619 22.7403 1.03494 23.4995 0.314543 24.8357C-0.187708 25.7569 -0.223221 26.7843 1.30383 27.4878C2.74463 28.1407 3.53098 28.4849 3.96221 28.6772C3.96221 28.6772 4.44417 28.8848 4.20572 29.3504C4.1905 29.3757 4.19558 29.3858 4.18543 29.4061C2.56706 32.1037 1.69954 35.181 1.69954 38.3291V53.8419C1.69954 56.1904 3.60708 58.0934 5.96107 58.0934H11.4706C13.8246 58.0934 15.7321 56.1853 15.7321 53.8369C15.7321 53.7508 15.7981 53.68 15.8894 53.68H28.6283H31.5911C31.5911 53.68 31.581 53.6496 31.5759 53.6344ZM18.5985 38.3291C18.5884 38.6328 18.3702 38.8858 18.0658 38.9415C17.2338 39.0731 15.4582 39.3059 12.9824 39.3059C10.5067 39.3059 8.73106 39.0782 7.89905 38.9415C7.63016 38.8909 7.42723 38.6885 7.3765 38.4253V34.2042C7.38665 33.9005 7.6048 33.6474 7.90919 33.5917C8.74121 33.4602 10.5168 33.2273 12.9926 33.2273C15.4683 33.2273 17.244 33.4602 18.076 33.5917C18.3449 33.6424 18.5478 33.8448 18.5985 34.108V38.3291Z" fill="currentColor"/>
<path d="M70.0007 3.07336e-08H51.6609C41.8188 3.07336e-08 37.0601 4.56528 34.8532 12.8708H49.0279L57.7894 23.2566H60.6405C61.295 22.0065 62.6039 21.1562 64.1157 21.1562C66.282 21.1562 68.0373 22.9074 68.0373 25.0685C68.0373 27.2297 66.282 28.9809 64.1157 28.9809C62.6039 28.9809 61.295 28.1306 60.6405 26.8805H56.0949L47.3334 16.4947H34.0821C33.3109 21.0904 33.0776 26.5667 33.0776 32.8376C33.0776 33.3286 33.0776 33.8043 33.0826 34.2801H51.1079C51.7623 33.0299 53.0712 32.1796 54.5831 32.1796C56.7493 32.1796 58.5047 33.9308 58.5047 36.092C58.5047 38.2532 56.7493 40.0044 54.5831 40.0044C53.0712 40.0044 51.7623 39.1541 51.1079 37.904H33.1384C33.2602 42.4642 33.5747 46.5233 34.2292 50.0409H55.481V53.7255H61.8987V51.8174C60.6456 51.1645 59.7933 49.8587 59.7933 48.3504C59.7933 46.1893 61.5486 44.4381 63.7149 44.4381C65.8812 44.4381 67.6365 46.1893 67.6365 48.3504C67.6365 49.8587 66.7842 51.1645 65.5311 51.8174V57.3545H51.8384V53.6699H35.0815C37.3898 61.4339 42.1536 65.6854 51.6558 65.6854H69.9956C86.0473 65.6854 88.584 53.5636 88.584 32.8376C88.584 12.1117 86.0473 -0.0101225 69.9956 -0.0101225L70.0007 3.07336e-08Z" fill="currentColor"/>
</svg>
